<?xml version="1.0" encoding="utf-8"?>
<!-- Generator: Adobe Illustrator 21.1.0, SVG Export Plug-In . SVG Version: 6.00 Build 0)  -->
<svg version="1.1" xmlns="http://www.w3.org/2000/svg" xmlns:xlink="http://www.w3.org/1999/xlink" x="0px" y="0px"
	 viewBox="0 0 1000 1000" style="enable-background:new 0 0 1000 1000;" xml:space="preserve">
<style type="text/css">
	.st0{display:none;}
	.st1{fill:#FFFFFF;}
	.st2{fill:#FF6600;}
</style>
<g id="Background" class="st0">
</g>
<g id="Objects">
	<path class="st1" d="M718.4,698.9c-7.3,12.9-16,25-25.8,36.2l0.3,0.3l-9.1,9.2c-40.7,41-94.9,63.5-152.7,63.5
		c-57.5,0-111.6-22.4-152.2-63.1c-40.7-40.7-63.1-94.7-63.1-152.2c0-4.2,0.1-8.6,0.4-12.8c0-0.6,0.1-1.2,0.1-1.8l0-0.2
		c0-0.4,0.1-0.8,0.1-1.2l0-0.2c0.1-0.9,0.1-1.8,0.2-2.7c0.1-0.7,0.1-1.5,0.2-2.3c0.1-1.1,0.2-2.3,0.4-3.5c0.1-0.7,0.2-1.4,0.3-2.2
		c0.1-0.9,0.2-2,0.4-3.1c0.1-0.6,0.2-1.2,0.3-1.7c0.1-1,0.3-2,0.5-3.1c0.1-0.6,0.2-1.2,0.3-1.8c0.1-0.5,0.2-1.1,0.3-1.6
		c0.1-0.7,0.3-1.5,0.4-2.2c0.1-0.7,0.3-1.4,0.4-2.2c0.2-0.8,0.3-1.7,0.5-2.5c1.2-5.9,2.7-11.8,4.5-17.5l0.1-0.2
		c0.2-0.8,0.5-1.5,0.7-2.3c0.2-0.6,0.4-1.3,0.6-2c1.2-3.8,2.6-7.6,4-11.2c0.2-0.5,0.4-1,0.6-1.6c0.2-0.6,0.5-1.2,0.7-1.7
		c0.3-0.7,0.6-1.5,0.9-2.3c0.2-0.6,0.5-1.3,0.8-1.9l0.1-0.3c0.4-0.9,0.8-1.8,1.2-2.7c0.3-0.7,0.6-1.3,0.9-2
		c5.4-11.7,12-23,19.6-33.7l1.2-1.7c0.9-1.2,1.7-2.3,2.6-3.5c0.4-0.5,0.8-1.1,1.3-1.7c0.9-1.2,1.9-2.4,2.9-3.6
		c0.6-0.7,1.1-1.4,1.7-2.1c0.5-0.6,1.1-1.3,1.7-2c0.6-0.7,1.2-1.4,1.8-2c0.7-0.8,1.3-1.5,2-2.3L345,424.3
		c-41.9,46.2-65,105.8-65,168.5c0,67.1,26.1,130.1,73.5,177.5C401,817.7,464,843.8,531,843.8c67.3,0,130.4-26.3,177.9-73.9
		c13.5-13.6,25.5-28.7,35.5-44.9L718.4,698.9z"/>
	<path class="st2" d="M397.2,726.7c35.7,35.7,83.3,55.4,133.9,55.4c1.6,0,3.2,0,4.8-0.1c0.8,0,1.6,0,2.3-0.1h0.1
		c1.2-0.1,2.3-0.1,3.5-0.2c0.9-0.1,1.9-0.1,2.8-0.2c0.5,0,0.9-0.1,1.3-0.1l0.6-0.1c0.8-0.1,1.7-0.1,2.6-0.2c0.8-0.1,1.5-0.1,2.2-0.2
		c0.5-0.1,1-0.1,1.4-0.2l1-0.1c0.6-0.1,1.2-0.2,1.9-0.2c2.3-0.3,4.6-0.6,6.9-1c0.6-0.1,1.3-0.2,1.9-0.3l0.2,0c0.5-0.1,1-0.2,1.5-0.3
		l0.2-0.1c0.6-0.1,1.3-0.2,1.9-0.4c1.7-0.3,3.4-0.7,5-1c1.1-0.2,2.2-0.5,3.3-0.8l0.1,0c0.3-0.1,0.6-0.1,0.8-0.2
		c0.8-0.2,1.6-0.4,2.3-0.6c0.6-0.2,1.3-0.3,1.9-0.5c0.5-0.1,1-0.3,1.4-0.4c0.4-0.1,0.8-0.2,1.1-0.3l0.3-0.1c0.5-0.1,0.9-0.3,1.4-0.4
		c0.8-0.2,1.5-0.4,2.1-0.7c0.5-0.2,1-0.3,1.5-0.5c1.6-0.5,3.2-1,4.7-1.6c0.4-0.2,0.9-0.3,1.3-0.5l0.3-0.1c0.6-0.2,1-0.4,1.5-0.6
		c0.8-0.3,1.5-0.5,2.2-0.8c0.6-0.2,1.1-0.4,1.6-0.6c1-0.4,1.8-0.7,2.7-1.1l2.6-1.1c0.8-0.4,1.6-0.7,2.4-1.1c0.5-0.2,0.9-0.4,1.3-0.6
		l0.4-0.2c0.6-0.3,1.3-0.6,1.9-0.9c4-1.9,7.9-3.9,11.7-6.1c0.4-0.2,0.8-0.5,1.2-0.7c0.9-0.5,1.7-1,2.6-1.5l4.3-2.7
		c1.9-1.2,3.9-2.5,6-4c0.6-0.4,1.2-0.8,1.8-1.2l0.2-0.2c0.4-0.3,0.9-0.6,1.3-0.9l0.1-0.1c0.3-0.2,0.6-0.5,1-0.7l0.1-0.1
		c0.5-0.4,1.1-0.8,1.6-1.2c0.6-0.5,1.2-0.9,1.8-1.3c0.4-0.3,0.7-0.6,1.1-0.9l0.4-0.3c0.6-0.5,1.2-0.9,1.8-1.4c0.6-0.5,1.2-1,1.8-1.5
		l0.2-0.1c1.1-0.9,2.3-1.9,3.4-2.9c0.3-0.3,0.7-0.6,1-0.9l-25.3-25.3c-27.7,23.6-62.9,36.6-99.5,36.6
		c-84.7,0-153.6-68.9-153.6-153.6c0-41.3,16.1-80,45.5-109.1c13.8-13.6,30.2-24.7,48-32.3l-26.8-26.8c-17.1,8.9-32.7,20.3-46.5,33.9
		c-36,35.8-55.9,83.5-55.9,134.2C341.7,643.4,361.4,690.9,397.2,726.7z"/>
	<path class="st2" d="M745.8,545.7c0-67-26.1-130.1-73.5-177.5c-47.4-47.4-110.4-73.5-177.5-73.5c-67.3,0-130.4,26.3-177.9,73.9
		c-13.5,13.6-25.5,28.7-35.5,44.9l26.1,26.1c7.3-12.9,16-25,25.8-36.2l-0.3-0.3l9.1-9.2c40.7-41,94.9-63.5,152.7-63.5
		c57.5,0,111.6,22.4,152.2,63.1c40.7,40.7,63.1,94.7,63.1,152.2c0,4.3-0.1,8.6-0.4,12.8c0,0.6-0.1,1.2-0.1,1.8
		c0,0.4-0.1,0.9-0.1,1.3l0,0.2c-0.1,0.9-0.1,1.8-0.2,2.7c-0.1,0.7-0.1,1.5-0.2,2.3c-0.1,1.1-0.2,2.3-0.4,3.5
		c-0.1,0.7-0.2,1.4-0.3,2.2c-0.1,0.9-0.2,2-0.4,3.1c-0.1,0.6-0.2,1.2-0.3,1.7c-0.1,1-0.3,2.1-0.5,3.1c-0.1,0.6-0.2,1.2-0.3,1.8
		c-0.1,0.5-0.2,1.1-0.3,1.6c-0.1,0.7-0.3,1.5-0.4,2.2c-0.1,0.7-0.3,1.4-0.4,2.2c-0.2,0.8-0.3,1.7-0.5,2.5
		c-1.2,5.9-2.7,11.8-4.5,17.5c-0.2,0.8-0.5,1.6-0.8,2.4c-0.2,0.6-0.4,1.3-0.6,2c-1.2,3.8-2.6,7.6-4,11.2c-0.2,0.5-0.4,1-0.6,1.6
		c-0.2,0.6-0.5,1.2-0.7,1.8c-0.3,0.7-0.6,1.5-0.9,2.3c-0.2,0.6-0.5,1.3-0.8,1.9l-0.1,0.3c-0.4,0.9-0.8,1.8-1.2,2.7
		c-0.3,0.7-0.6,1.3-0.9,2c-5.4,11.7-12,23.1-19.6,33.7l-1.2,1.7c-0.9,1.2-1.7,2.3-2.6,3.5c-0.4,0.5-0.8,1.1-1.3,1.7
		c-0.9,1.2-1.9,2.4-2.8,3.6c-0.6,0.7-1.1,1.4-1.7,2.1c-0.5,0.6-1,1.3-1.6,1.9l-0.1,0.1c-0.6,0.7-1.2,1.4-1.8,2.1
		c-0.7,0.8-1.3,1.5-2,2.3l25.3,25.3C722.8,668,745.8,608.4,745.8,545.7z"/>
	<path class="st1" d="M554.9,687.1l26.8,26.8c17.1-8.9,32.7-20.3,46.5-33.9c36-35.8,55.9-83.5,55.9-134.3
		c0-50.6-19.7-98.1-55.4-133.8c-35.7-35.7-83.3-55.4-133.9-55.4c-1.6,0-3.2,0-4.8,0.1c-0.8,0-1.6,0-2.3,0.1h-0.1
		c-1.2,0.1-2.3,0.1-3.5,0.2c-0.9,0.1-1.9,0.1-2.8,0.2c-0.5,0-0.9,0.1-1.3,0.1l-0.6,0.1c-0.8,0.1-1.7,0.1-2.6,0.2
		c-0.8,0.1-1.5,0.1-2.2,0.2c-0.5,0.1-1,0.1-1.4,0.2l-0.7,0.1c-0.1,0-0.2,0-0.2,0c-0.6,0.1-1.2,0.1-1.8,0.2c-2.3,0.3-4.6,0.6-6.9,1
		c-0.6,0.1-1.3,0.2-1.9,0.3l-0.2,0c-0.5,0.1-1,0.2-1.4,0.3l-0.3,0.1c-0.6,0.1-1.2,0.2-1.9,0.4c-1.8,0.3-3.4,0.7-5.1,1.1
		c-1.1,0.2-2.2,0.5-3.3,0.8l-0.1,0c-0.3,0.1-0.6,0.1-0.8,0.2c-0.8,0.2-1.6,0.4-2.3,0.6c-0.6,0.2-1.2,0.3-1.9,0.5
		c-0.5,0.1-1,0.3-1.5,0.4c-0.4,0.1-0.8,0.2-1.1,0.3l-0.3,0.1c-0.5,0.1-0.9,0.3-1.4,0.4c-0.8,0.2-1.5,0.4-2.1,0.7
		c-0.5,0.2-1,0.3-1.5,0.5c-1.6,0.5-3.2,1-4.7,1.6c-0.4,0.1-0.8,0.3-1.2,0.4l-0.4,0.1c-0.5,0.2-1,0.4-1.5,0.5
		c-0.8,0.3-1.5,0.6-2.2,0.8c-0.6,0.2-1.1,0.4-1.6,0.6c-1,0.4-1.8,0.7-2.7,1.1l-2.6,1.1c-0.8,0.3-1.6,0.7-2.4,1.1
		c-0.5,0.2-0.9,0.4-1.3,0.6l-0.4,0.2c-0.6,0.3-1.3,0.6-1.9,0.9c-4,1.9-7.9,3.9-11.7,6.1c-0.4,0.2-0.8,0.5-1.2,0.7
		c-0.8,0.5-1.7,1-2.5,1.5l-2.7,1.7c-0.6,0.3-1.2,0.7-1.7,1.1c-1.9,1.2-3.9,2.5-6,4c-0.5,0.4-1.1,0.8-1.6,1.1l-0.3,0.2
		c-0.5,0.3-0.9,0.7-1.4,1l-0.2,0.1c-0.3,0.2-0.6,0.4-0.9,0.7l-0.1,0.1c-0.5,0.4-1.1,0.8-1.6,1.2c-0.6,0.5-1.2,0.9-1.7,1.3
		c-0.4,0.3-0.8,0.6-1.1,0.8l-0.4,0.3c-0.6,0.5-1.2,0.9-1.8,1.4c-0.7,0.5-1.3,1.1-2,1.6c-1.2,0.9-2.3,1.9-3.4,2.9
		c-0.3,0.3-0.7,0.6-1,0.9l25.3,25.3c27.7-23.6,62.9-36.6,99.5-36.6c84.7,0,153.6,68.9,153.6,153.6c0,41.3-16.1,80-45.5,109.1
		C589.2,668.4,572.7,679.5,554.9,687.1z"/>
</g>
</svg>
