<?xml version="1.0" encoding="UTF-8" standalone="no"?>
<!-- Generator: Adobe Illustrator 21.1.0, SVG Export Plug-In . SVG Version: 6.00 Build 0)  -->

<svg
   xmlns:dc="http://purl.org/dc/elements/1.1/"
   xmlns:cc="http://creativecommons.org/ns#"
   xmlns:rdf="http://www.w3.org/1999/02/22-rdf-syntax-ns#"
   xmlns:svg="http://www.w3.org/2000/svg"
   xmlns="http://www.w3.org/2000/svg"
   xmlns:sodipodi="http://sodipodi.sourceforge.net/DTD/sodipodi-0.dtd"
   xmlns:inkscape="http://www.inkscape.org/namespaces/inkscape"
   version="1.1"
   x="0px"
   y="0px"
   viewBox="0 0 1000 1000"
   style="enable-background:new 0 0 1000 1000;"
   xml:space="preserve"
   id="svg847"
   sodipodi:docname="logosvg2.svg"
   inkscape:version="0.92.3 (2405546, 2018-03-11)"><metadata
   id="metadata853"><rdf:RDF><cc:Work
       rdf:about=""><dc:format>image/svg+xml</dc:format><dc:type
         rdf:resource="http://purl.org/dc/dcmitype/StillImage" /><dc:title></dc:title></cc:Work></rdf:RDF></metadata><defs
   id="defs851" /><sodipodi:namedview
   pagecolor="#ffffff"
   bordercolor="#666666"
   borderopacity="1"
   objecttolerance="10"
   gridtolerance="10"
   guidetolerance="10"
   inkscape:pageopacity="0"
   inkscape:pageshadow="2"
   inkscape:window-width="1920"
   inkscape:window-height="1017"
   id="namedview849"
   showgrid="false"
   inkscape:zoom="0.848"
   inkscape:cx="500"
   inkscape:cy="500"
   inkscape:window-x="-8"
   inkscape:window-y="-8"
   inkscape:window-maximized="1"
   inkscape:current-layer="svg847" />
<style
   type="text/css"
   id="style835">
	.st0{display:none;}
	.st1{fill:#FFFFFF;}
	.st2{fill:#FF6600;}
</style>
<g
   id="Background"
   class="st0">
</g>
<g
   id="Objects"
   transform="matrix(0.07943323,0,0,0.0764888,1.8624657,-3.7601224)"
   inkscape:export-filename="C:\Users\b2462\Desktop\Objects.png"
   inkscape:export-xdpi="96"
   inkscape:export-ydpi="96"
   style="stroke-width:12.82921124">
	<path
   class="st1"
   d="m 718.4,698.9 c -7.3,12.9 -16,25 -25.8,36.2 l 0.3,0.3 -9.1,9.2 c -40.7,41 -94.9,63.5 -152.7,63.5 -57.5,0 -111.6,-22.4 -152.2,-63.1 -40.7,-40.7 -63.1,-94.7 -63.1,-152.2 0,-4.2 0.1,-8.6 0.4,-12.8 0,-0.6 0.1,-1.2 0.1,-1.8 V 578 c 0,-0.4 0.1,-0.8 0.1,-1.2 v -0.2 c 0.1,-0.9 0.1,-1.8 0.2,-2.7 0.1,-0.7 0.1,-1.5 0.2,-2.3 0.1,-1.1 0.2,-2.3 0.4,-3.5 0.1,-0.7 0.2,-1.4 0.3,-2.2 0.1,-0.9 0.2,-2 0.4,-3.1 0.1,-0.6 0.2,-1.2 0.3,-1.7 0.1,-1 0.3,-2 0.5,-3.1 0.1,-0.6 0.2,-1.2 0.3,-1.8 0.1,-0.5 0.2,-1.1 0.3,-1.6 0.1,-0.7 0.3,-1.5 0.4,-2.2 0.1,-0.7 0.3,-1.4 0.4,-2.2 0.2,-0.8 0.3,-1.7 0.5,-2.5 1.2,-5.9 2.7,-11.8 4.5,-17.5 l 0.1,-0.2 c 0.2,-0.8 0.5,-1.5 0.7,-2.3 0.2,-0.6 0.4,-1.3 0.6,-2 1.2,-3.8 2.6,-7.6 4,-11.2 0.2,-0.5 0.4,-1 0.6,-1.6 0.2,-0.6 0.5,-1.2 0.7,-1.7 0.3,-0.7 0.6,-1.5 0.9,-2.3 0.2,-0.6 0.5,-1.3 0.8,-1.9 l 0.1,-0.3 c 0.4,-0.9 0.8,-1.8 1.2,-2.7 0.3,-0.7 0.6,-1.3 0.9,-2 5.4,-11.7 12,-23 19.6,-33.7 l 1.2,-1.7 c 0.9,-1.2 1.7,-2.3 2.6,-3.5 0.4,-0.5 0.8,-1.1 1.3,-1.7 0.9,-1.2 1.9,-2.4 2.9,-3.6 0.6,-0.7 1.1,-1.4 1.7,-2.1 0.5,-0.6 1.1,-1.3 1.7,-2 0.6,-0.7 1.2,-1.4 1.8,-2 0.7,-0.8 1.3,-1.5 2,-2.3 L 345,424.3 c -41.9,46.2 -65,105.8 -65,168.5 0,67.1 26.1,130.1 73.5,177.5 47.5,47.4 110.5,73.5 177.5,73.5 67.3,0 130.4,-26.3 177.9,-73.9 13.5,-13.6 25.5,-28.7 35.5,-44.9 z"
   id="path838"
   inkscape:connector-curvature="0"
   style="fill:#ffffff;stroke-width:12.82921124" />
	<path
   class="st2"
   d="m 397.2,726.7 c 35.7,35.7 83.3,55.4 133.9,55.4 1.6,0 3.2,0 4.8,-0.1 0.8,0 1.6,0 2.3,-0.1 h 0.1 c 1.2,-0.1 2.3,-0.1 3.5,-0.2 0.9,-0.1 1.9,-0.1 2.8,-0.2 0.5,0 0.9,-0.1 1.3,-0.1 l 0.6,-0.1 c 0.8,-0.1 1.7,-0.1 2.6,-0.2 0.8,-0.1 1.5,-0.1 2.2,-0.2 0.5,-0.1 1,-0.1 1.4,-0.2 l 1,-0.1 c 0.6,-0.1 1.2,-0.2 1.9,-0.2 2.3,-0.3 4.6,-0.6 6.9,-1 0.6,-0.1 1.3,-0.2 1.9,-0.3 h 0.2 c 0.5,-0.1 1,-0.2 1.5,-0.3 l 0.2,-0.1 c 0.6,-0.1 1.3,-0.2 1.9,-0.4 1.7,-0.3 3.4,-0.7 5,-1 1.1,-0.2 2.2,-0.5 3.3,-0.8 h 0.1 c 0.3,-0.1 0.6,-0.1 0.8,-0.2 0.8,-0.2 1.6,-0.4 2.3,-0.6 0.6,-0.2 1.3,-0.3 1.9,-0.5 0.5,-0.1 1,-0.3 1.4,-0.4 0.4,-0.1 0.8,-0.2 1.1,-0.3 l 0.3,-0.1 c 0.5,-0.1 0.9,-0.3 1.4,-0.4 0.8,-0.2 1.5,-0.4 2.1,-0.7 0.5,-0.2 1,-0.3 1.5,-0.5 1.6,-0.5 3.2,-1 4.7,-1.6 0.4,-0.2 0.9,-0.3 1.3,-0.5 l 0.3,-0.1 c 0.6,-0.2 1,-0.4 1.5,-0.6 0.8,-0.3 1.5,-0.5 2.2,-0.8 0.6,-0.2 1.1,-0.4 1.6,-0.6 1,-0.4 1.8,-0.7 2.7,-1.1 l 2.6,-1.1 c 0.8,-0.4 1.6,-0.7 2.4,-1.1 0.5,-0.2 0.9,-0.4 1.3,-0.6 l 0.4,-0.2 c 0.6,-0.3 1.3,-0.6 1.9,-0.9 4,-1.9 7.9,-3.9 11.7,-6.1 0.4,-0.2 0.8,-0.5 1.2,-0.7 0.9,-0.5 1.7,-1 2.6,-1.5 l 4.3,-2.7 c 1.9,-1.2 3.9,-2.5 6,-4 0.6,-0.4 1.2,-0.8 1.8,-1.2 l 0.2,-0.2 c 0.4,-0.3 0.9,-0.6 1.3,-0.9 l 0.1,-0.1 c 0.3,-0.2 0.6,-0.5 1,-0.7 l 0.1,-0.1 c 0.5,-0.4 1.1,-0.8 1.6,-1.2 0.6,-0.5 1.2,-0.9 1.8,-1.3 0.4,-0.3 0.7,-0.6 1.1,-0.9 l 0.4,-0.3 c 0.6,-0.5 1.2,-0.9 1.8,-1.4 0.6,-0.5 1.2,-1 1.8,-1.5 l 0.2,-0.1 c 1.1,-0.9 2.3,-1.9 3.4,-2.9 0.3,-0.3 0.7,-0.6 1,-0.9 l -25.3,-25.3 c -27.7,23.6 -62.9,36.6 -99.5,36.6 -84.7,0 -153.6,-68.9 -153.6,-153.6 0,-41.3 16.1,-80 45.5,-109.1 13.8,-13.6 30.2,-24.7 48,-32.3 L 444,424.4 c -17.1,8.9 -32.7,20.3 -46.5,33.9 -36,35.8 -55.9,83.5 -55.9,134.2 0.1,50.9 19.8,98.4 55.6,134.2 z"
   id="path840"
   inkscape:connector-curvature="0"
   style="fill:#ff6600;stroke-width:12.82921124" />
	<path
   class="st2"
   d="m 745.8,545.7 c 0,-67 -26.1,-130.1 -73.5,-177.5 -47.4,-47.4 -110.4,-73.5 -177.5,-73.5 -67.3,0 -130.4,26.3 -177.9,73.9 -13.5,13.6 -25.5,28.7 -35.5,44.9 l 26.1,26.1 c 7.3,-12.9 16,-25 25.8,-36.2 l -0.3,-0.3 9.1,-9.2 c 40.7,-41 94.9,-63.5 152.7,-63.5 57.5,0 111.6,22.4 152.2,63.1 40.7,40.7 63.1,94.7 63.1,152.2 0,4.3 -0.1,8.6 -0.4,12.8 0,0.6 -0.1,1.2 -0.1,1.8 0,0.4 -0.1,0.9 -0.1,1.3 v 0.2 c -0.1,0.9 -0.1,1.8 -0.2,2.7 -0.1,0.7 -0.1,1.5 -0.2,2.3 -0.1,1.1 -0.2,2.3 -0.4,3.5 -0.1,0.7 -0.2,1.4 -0.3,2.2 -0.1,0.9 -0.2,2 -0.4,3.1 -0.1,0.6 -0.2,1.2 -0.3,1.7 -0.1,1 -0.3,2.1 -0.5,3.1 -0.1,0.6 -0.2,1.2 -0.3,1.8 -0.1,0.5 -0.2,1.1 -0.3,1.6 -0.1,0.7 -0.3,1.5 -0.4,2.2 -0.1,0.7 -0.3,1.4 -0.4,2.2 -0.2,0.8 -0.3,1.7 -0.5,2.5 -1.2,5.9 -2.7,11.8 -4.5,17.5 -0.2,0.8 -0.5,1.6 -0.8,2.4 -0.2,0.6 -0.4,1.3 -0.6,2 -1.2,3.8 -2.6,7.6 -4,11.2 -0.2,0.5 -0.4,1 -0.6,1.6 -0.2,0.6 -0.5,1.2 -0.7,1.8 -0.3,0.7 -0.6,1.5 -0.9,2.3 -0.2,0.6 -0.5,1.3 -0.8,1.9 l -0.1,0.3 c -0.4,0.9 -0.8,1.8 -1.2,2.7 -0.3,0.7 -0.6,1.3 -0.9,2 -5.4,11.7 -12,23.1 -19.6,33.7 l -1.2,1.7 c -0.9,1.2 -1.7,2.3 -2.6,3.5 -0.4,0.5 -0.8,1.1 -1.3,1.7 -0.9,1.2 -1.9,2.4 -2.8,3.6 -0.6,0.7 -1.1,1.4 -1.7,2.1 -0.5,0.6 -1,1.3 -1.6,1.9 l -0.1,0.1 c -0.6,0.7 -1.2,1.4 -1.8,2.1 -0.7,0.8 -1.3,1.5 -2,2.3 l 25.3,25.3 c 42,-46.4 65,-106 65,-168.7 z"
   id="path842"
   inkscape:connector-curvature="0"
   style="fill:#ff6600;stroke-width:12.82921124" />
	<path
   class="st1"
   d="m 554.9,687.1 26.8,26.8 c 17.1,-8.9 32.7,-20.3 46.5,-33.9 36,-35.8 55.9,-83.5 55.9,-134.3 0,-50.6 -19.7,-98.1 -55.4,-133.8 -35.7,-35.7 -83.3,-55.4 -133.9,-55.4 -1.6,0 -3.2,0 -4.8,0.1 -0.8,0 -1.6,0 -2.3,0.1 h -0.1 c -1.2,0.1 -2.3,0.1 -3.5,0.2 -0.9,0.1 -1.9,0.1 -2.8,0.2 -0.5,0 -0.9,0.1 -1.3,0.1 l -0.6,0.1 c -0.8,0.1 -1.7,0.1 -2.6,0.2 -0.8,0.1 -1.5,0.1 -2.2,0.2 -0.5,0.1 -1,0.1 -1.4,0.2 l -0.7,0.1 c -0.1,0 -0.2,0 -0.2,0 -0.6,0.1 -1.2,0.1 -1.8,0.2 -2.3,0.3 -4.6,0.6 -6.9,1 -0.6,0.1 -1.3,0.2 -1.9,0.3 h -0.2 c -0.5,0.1 -1,0.2 -1.4,0.3 l -0.3,0.1 c -0.6,0.1 -1.2,0.2 -1.9,0.4 -1.8,0.3 -3.4,0.7 -5.1,1.1 -1.1,0.2 -2.2,0.5 -3.3,0.8 h -0.1 c -0.3,0.1 -0.6,0.1 -0.8,0.2 -0.8,0.2 -1.6,0.4 -2.3,0.6 -0.6,0.2 -1.2,0.3 -1.9,0.5 -0.5,0.1 -1,0.3 -1.5,0.4 -0.4,0.1 -0.8,0.2 -1.1,0.3 l -0.3,0.1 c -0.5,0.1 -0.9,0.3 -1.4,0.4 -0.8,0.2 -1.5,0.4 -2.1,0.7 -0.5,0.2 -1,0.3 -1.5,0.5 -1.6,0.5 -3.2,1 -4.7,1.6 -0.4,0.1 -0.8,0.3 -1.2,0.4 l -0.4,0.1 c -0.5,0.2 -1,0.4 -1.5,0.5 -0.8,0.3 -1.5,0.6 -2.2,0.8 -0.6,0.2 -1.1,0.4 -1.6,0.6 -1,0.4 -1.8,0.7 -2.7,1.1 l -2.6,1.1 c -0.8,0.3 -1.6,0.7 -2.4,1.1 -0.5,0.2 -0.9,0.4 -1.3,0.6 l -0.4,0.2 c -0.6,0.3 -1.3,0.6 -1.9,0.9 -4,1.9 -7.9,3.9 -11.7,6.1 -0.4,0.2 -0.8,0.5 -1.2,0.7 -0.8,0.5 -1.7,1 -2.5,1.5 l -2.7,1.7 c -0.6,0.3 -1.2,0.7 -1.7,1.1 -1.9,1.2 -3.9,2.5 -6,4 -0.5,0.4 -1.1,0.8 -1.6,1.1 l -0.3,0.2 c -0.5,0.3 -0.9,0.7 -1.4,1 l -0.2,0.1 c -0.3,0.2 -0.6,0.4 -0.9,0.7 l -0.1,0.1 c -0.5,0.4 -1.1,0.8 -1.6,1.2 -0.6,0.5 -1.2,0.9 -1.7,1.3 -0.4,0.3 -0.8,0.6 -1.1,0.8 l -0.4,0.3 c -0.6,0.5 -1.2,0.9 -1.8,1.4 -0.7,0.5 -1.3,1.1 -2,1.6 -1.2,0.9 -2.3,1.9 -3.4,2.9 -0.3,0.3 -0.7,0.6 -1,0.9 l 25.3,25.3 c 27.7,-23.6 62.9,-36.6 99.5,-36.6 84.7,0 153.6,68.9 153.6,153.6 0,41.3 -16.1,80 -45.5,109.1 -14,13.4 -30.5,24.5 -48.3,32.1 z"
   id="path844"
   inkscape:connector-curvature="0"
   style="fill:#ffffff;stroke-width:12.82921124" />
</g>
</svg>